<svg xmlns="http://www.w3.org/2000/svg" viewBox="0 0 1200 320" width="1200" height="320" role="img" aria-label="Pedro Rodrigues. Telematics Engineering at UPCT. 5G, reinforcement learning and optimization.">
<defs>
<linearGradient id="bg" x1="0" y1="0" x2="1" y2="1"><stop offset="0" stop-color="#0a0f1c"/><stop offset=".55" stop-color="#0d1b33"/><stop offset="1" stop-color="#0a2540"/></linearGradient>
<radialGradient id="glow" cx="955" cy="160" r="420" gradientUnits="userSpaceOnUse"><stop offset="0" stop-color="#2f81f7" stop-opacity=".28"/><stop offset="1" stop-color="#2f81f7" stop-opacity="0"/></radialGradient>
<linearGradient id="accent" x1="0" y1="0" x2="1" y2="0"><stop offset="0" stop-color="#58a6ff"/><stop offset="1" stop-color="#22d3ee"/></linearGradient>
<linearGradient id="route" x1="690" y1="0" x2="1150" y2="0" gradientUnits="userSpaceOnUse"><stop offset="0" stop-color="#58a6ff"/><stop offset="1" stop-color="#22d3ee"/></linearGradient>
<pattern id="dots" width="22" height="22" patternUnits="userSpaceOnUse"><circle cx="2" cy="2" r="1" fill="#8b949e" fill-opacity=".10"/></pattern>
<clipPath id="card"><rect width="1200" height="320" rx="22"/></clipPath>
</defs>
<g clip-path="url(#card)">
<rect width="1200" height="320" fill="url(#bg)"/>
<rect width="1200" height="320" fill="url(#dots)"/>
<rect width="1200" height="320" fill="url(#glow)"/>
<line x1="839.0" y1="81.8" x2="722.1" y2="68.3" stroke="#8b949e" stroke-opacity=".22" stroke-width="1.2"/>
<line x1="839.0" y1="81.8" x2="818.1" y2="141.0" stroke="#8b949e" stroke-opacity=".22" stroke-width="1.2"/>
<line x1="839.0" y1="81.8" x2="771.1" y2="100.0" stroke="#8b949e" stroke-opacity=".22" stroke-width="1.2"/>
<line x1="839.0" y1="81.8" x2="892.5" y2="89.0" stroke="#8b949e" stroke-opacity=".22" stroke-width="1.2"/>
<line x1="989.4" y1="64.2" x2="936.5" y2="129.9" stroke="#8b949e" stroke-opacity=".22" stroke-width="1.2"/>
<line x1="989.4" y1="64.2" x2="1003.0" y2="143.8" stroke="#8b949e" stroke-opacity=".22" stroke-width="1.2"/>
<line x1="989.4" y1="64.2" x2="930.8" y2="52.2" stroke="#8b949e" stroke-opacity=".22" stroke-width="1.2"/>
<line x1="936.5" y1="129.9" x2="1003.0" y2="143.8" stroke="#8b949e" stroke-opacity=".22" stroke-width="1.2"/>
<line x1="936.5" y1="129.9" x2="927.1" y2="186.3" stroke="#8b949e" stroke-opacity=".22" stroke-width="1.2"/>
<line x1="936.5" y1="129.9" x2="930.8" y2="52.2" stroke="#8b949e" stroke-opacity=".22" stroke-width="1.2"/>
<line x1="936.5" y1="129.9" x2="892.5" y2="89.0" stroke="#8b949e" stroke-opacity=".22" stroke-width="1.2"/>
<line x1="716.7" y1="161.7" x2="722.1" y2="68.3" stroke="#8b949e" stroke-opacity=".22" stroke-width="1.2"/>
<line x1="716.7" y1="161.7" x2="773.1" y2="178.3" stroke="#8b949e" stroke-opacity=".22" stroke-width="1.2"/>
<line x1="716.7" y1="161.7" x2="717.1" y2="220.1" stroke="#8b949e" stroke-opacity=".22" stroke-width="1.2"/>
<line x1="716.7" y1="161.7" x2="771.1" y2="100.0" stroke="#8b949e" stroke-opacity=".22" stroke-width="1.2"/>
<line x1="722.1" y1="68.3" x2="771.1" y2="100.0" stroke="#8b949e" stroke-opacity=".22" stroke-width="1.2"/>
<line x1="885.3" y1="233.2" x2="978.6" y2="260.3" stroke="#8b949e" stroke-opacity=".22" stroke-width="1.2"/>
<line x1="885.3" y1="233.2" x2="831.9" y2="230.8" stroke="#8b949e" stroke-opacity=".22" stroke-width="1.2"/>
<line x1="885.3" y1="233.2" x2="859.9" y2="174.9" stroke="#8b949e" stroke-opacity=".22" stroke-width="1.2"/>
<line x1="885.3" y1="233.2" x2="927.1" y2="186.3" stroke="#8b949e" stroke-opacity=".22" stroke-width="1.2"/>
<line x1="978.6" y1="260.3" x2="1055.4" y2="204.6" stroke="#8b949e" stroke-opacity=".22" stroke-width="1.2"/>
<line x1="978.6" y1="260.3" x2="1076.4" y2="259.6" stroke="#8b949e" stroke-opacity=".22" stroke-width="1.2"/>
<line x1="978.6" y1="260.3" x2="927.1" y2="186.3" stroke="#8b949e" stroke-opacity=".22" stroke-width="1.2"/>
<line x1="1139.1" y1="58.4" x2="1084.9" y2="112.9" stroke="#8b949e" stroke-opacity=".22" stroke-width="1.2"/>
<line x1="1139.1" y1="58.4" x2="1128.4" y2="202.7" stroke="#8b949e" stroke-opacity=".22" stroke-width="1.2"/>
<line x1="1139.1" y1="58.4" x2="1130.0" y2="148.2" stroke="#8b949e" stroke-opacity=".22" stroke-width="1.2"/>
<line x1="1084.9" y1="112.9" x2="1003.0" y2="143.8" stroke="#8b949e" stroke-opacity=".22" stroke-width="1.2"/>
<line x1="1084.9" y1="112.9" x2="1130.0" y2="148.2" stroke="#8b949e" stroke-opacity=".22" stroke-width="1.2"/>
<line x1="831.9" y1="230.8" x2="859.9" y2="174.9" stroke="#8b949e" stroke-opacity=".22" stroke-width="1.2"/>
<line x1="831.9" y1="230.8" x2="758.7" y2="253.9" stroke="#8b949e" stroke-opacity=".22" stroke-width="1.2"/>
<line x1="773.1" y1="178.3" x2="717.1" y2="220.1" stroke="#8b949e" stroke-opacity=".22" stroke-width="1.2"/>
<line x1="773.1" y1="178.3" x2="818.1" y2="141.0" stroke="#8b949e" stroke-opacity=".22" stroke-width="1.2"/>
<line x1="773.1" y1="178.3" x2="758.7" y2="253.9" stroke="#8b949e" stroke-opacity=".22" stroke-width="1.2"/>
<line x1="1003.0" y1="143.8" x2="1055.4" y2="204.6" stroke="#8b949e" stroke-opacity=".22" stroke-width="1.2"/>
<line x1="1055.4" y1="204.6" x2="1076.4" y2="259.6" stroke="#8b949e" stroke-opacity=".22" stroke-width="1.2"/>
<line x1="1055.4" y1="204.6" x2="1128.4" y2="202.7" stroke="#8b949e" stroke-opacity=".22" stroke-width="1.2"/>
<line x1="1076.4" y1="259.6" x2="1128.4" y2="202.7" stroke="#8b949e" stroke-opacity=".22" stroke-width="1.2"/>
<line x1="717.1" y1="220.1" x2="758.7" y2="253.9" stroke="#8b949e" stroke-opacity=".22" stroke-width="1.2"/>
<line x1="818.1" y1="141.0" x2="771.1" y2="100.0" stroke="#8b949e" stroke-opacity=".22" stroke-width="1.2"/>
<line x1="818.1" y1="141.0" x2="859.9" y2="174.9" stroke="#8b949e" stroke-opacity=".22" stroke-width="1.2"/>
<line x1="859.9" y1="174.9" x2="927.1" y2="186.3" stroke="#8b949e" stroke-opacity=".22" stroke-width="1.2"/>
<line x1="1128.4" y1="202.7" x2="1130.0" y2="148.2" stroke="#8b949e" stroke-opacity=".22" stroke-width="1.2"/>
<line x1="930.8" y1="52.2" x2="892.5" y2="89.0" stroke="#8b949e" stroke-opacity=".22" stroke-width="1.2"/>
<polyline points="717.1,220.1 758.7,253.9 831.9,230.8 885.3,233.2 927.1,186.3 936.5,129.9 1003.0,143.8 1084.9,112.9 1139.1,58.4" fill="none" stroke="url(#route)" stroke-width="2.6" stroke-linecap="round" stroke-linejoin="round" stroke-dasharray="9 9"><animate attributeName="stroke-dashoffset" from="0" to="-36" dur="1.4s" repeatCount="indefinite"/></polyline>
<circle cx="936.5" cy="129.9" r="8" fill="none" stroke="#22d3ee" stroke-width="1.6" opacity="0"><animate attributeName="r" values="8;78" dur="3s" begin="0s" repeatCount="indefinite"/><animate attributeName="opacity" values=".75;0" dur="3s" begin="0s" repeatCount="indefinite"/></circle>
<circle cx="936.5" cy="129.9" r="8" fill="none" stroke="#22d3ee" stroke-width="1.6" opacity="0"><animate attributeName="r" values="8;78" dur="3s" begin="1s" repeatCount="indefinite"/><animate attributeName="opacity" values=".75;0" dur="3s" begin="1s" repeatCount="indefinite"/></circle>
<circle cx="936.5" cy="129.9" r="8" fill="none" stroke="#22d3ee" stroke-width="1.6" opacity="0"><animate attributeName="r" values="8;78" dur="3s" begin="2s" repeatCount="indefinite"/><animate attributeName="opacity" values=".75;0" dur="3s" begin="2s" repeatCount="indefinite"/></circle>
<circle cx="936.5" cy="129.9" r="26" fill="none" stroke="#22d3ee" stroke-opacity="0.35" stroke-width="1.2"/>
<circle cx="936.5" cy="129.9" r="46" fill="none" stroke="#22d3ee" stroke-opacity="0.2" stroke-width="1.2"/>
<circle cx="936.5" cy="129.9" r="66" fill="none" stroke="#22d3ee" stroke-opacity="0.1" stroke-width="1.2"/>
<circle cx="839.0" cy="81.8" r="3.8" fill="#8b949e" fill-opacity=".55"/>
<circle cx="989.4" cy="64.2" r="3.8" fill="#8b949e" fill-opacity=".55"/>
<circle cx="936.5" cy="129.9" r="9" fill="#22d3ee"/><circle cx="936.5" cy="129.9" r="4" fill="#0a0f1c"/>
<circle cx="716.7" cy="161.7" r="3.8" fill="#8b949e" fill-opacity=".55"/>
<circle cx="722.1" cy="68.3" r="3.8" fill="#8b949e" fill-opacity=".55"/>
<circle cx="885.3" cy="233.2" r="5.5" fill="#58a6ff"/>
<circle cx="978.6" cy="260.3" r="3.8" fill="#8b949e" fill-opacity=".55"/>
<circle cx="1139.1" cy="58.4" r="5.5" fill="#58a6ff"/>
<circle cx="1084.9" cy="112.9" r="5.5" fill="#58a6ff"/>
<circle cx="831.9" cy="230.8" r="5.5" fill="#58a6ff"/>
<circle cx="773.1" cy="178.3" r="3.8" fill="#8b949e" fill-opacity=".55"/>
<circle cx="1003.0" cy="143.8" r="5.5" fill="#58a6ff"/>
<circle cx="1055.4" cy="204.6" r="3.8" fill="#8b949e" fill-opacity=".55"/>
<circle cx="1076.4" cy="259.6" r="3.8" fill="#8b949e" fill-opacity=".55"/>
<circle cx="717.1" cy="220.1" r="5.5" fill="#58a6ff"/>
<circle cx="818.1" cy="141.0" r="3.8" fill="#8b949e" fill-opacity=".55"/>
<circle cx="771.1" cy="100.0" r="3.8" fill="#8b949e" fill-opacity=".55"/>
<circle cx="859.9" cy="174.9" r="3.8" fill="#8b949e" fill-opacity=".55"/>
<circle cx="1128.4" cy="202.7" r="3.8" fill="#8b949e" fill-opacity=".55"/>
<circle cx="927.1" cy="186.3" r="5.5" fill="#58a6ff"/>
<circle cx="1130.0" cy="148.2" r="3.8" fill="#8b949e" fill-opacity=".55"/>
<circle cx="930.8" cy="52.2" r="3.8" fill="#8b949e" fill-opacity=".55"/>
<circle cx="892.5" cy="89.0" r="3.8" fill="#8b949e" fill-opacity=".55"/>
<circle cx="758.7" cy="253.9" r="5.5" fill="#58a6ff"/>
<g font-family="Inter, 'Segoe UI', -apple-system, BlinkMacSystemFont, Helvetica, Arial, sans-serif">
<text x="72" y="104" font-size="20" font-weight="600" letter-spacing="3" fill="#8b949e">HI, I&#8217;M</text>
<text x="70" y="168" font-size="62" font-weight="800" fill="#f0f6fc">Pedro Rodrigues</text>
<rect x="72" y="188" width="84" height="5" rx="2.5" fill="url(#accent)"/>
<text x="72" y="232" font-size="27" font-weight="600" fill="url(#accent)">Telematics Engineering &#183; UPCT</text>
<text x="72" y="268" font-size="20" fill="#9da7b3">5G &#183; Reinforcement learning &#183; Optimization</text>
</g>
</g>
</svg>
